<?xml version="1.0" encoding="utf-8"?>
<!-- Generator: Adobe Illustrator 22.1.0, SVG Export Plug-In . SVG Version: 6.00 Build 0)  -->
<svg version="1.1" id="Layer_1" xmlns="http://www.w3.org/2000/svg" xmlns:xlink="http://www.w3.org/1999/xlink" x="0px" y="0px"
	 viewBox="0 0 521.5 520.7" style="enable-background:new 0 0 521.5 520.7;" xml:space="preserve">
<style type="text/css">
	.st0{fill:#FFFFFF;stroke:#FFFFFF;stroke-width:7;stroke-miterlimit:10;}
</style>
<g>
	<g>
		<path class="st0" d="M441.2,79.5c-48.4-48.4-112.6-75-181-75s-132.7,26.6-181,75c-48.4,48.4-75,112.6-75,181s26.6,132.7,75,181
			c48.4,48.4,112.6,75,181,75s132.7-26.6,181-75s75-112.6,75-181S489.5,127.9,441.2,79.5z M260.2,500.4
			c-132.2,0-239.8-107.6-239.8-239.8S127.9,20.7,260.2,20.7S500,128.3,500,260.5S392.4,500.4,260.2,500.4z"/>
	</g>
</g>
<g>
	<g>
		<path class="st0" d="M352,101.6H168.3c-37,0-67.1,30.1-67.1,67.1v183.7c0,37,30.1,67.1,67.1,67.1H352c37,0,67.1-30.1,67.1-67.1
			V168.7C419.2,131.7,389,101.6,352,101.6z M403,352.4c0,28.1-22.9,51-51,51H168.3c-28.1,0-51-22.9-51-51V168.7
			c0-28.1,22.9-51,51-51H352c28.1,0,51,22.9,51,51L403,352.4L403,352.4z"/>
	</g>
</g>
<g>
	<g>
		<path class="st0" d="M343.6,255.8c-2.4-42.5-37-76.8-79.6-78.7c-49.1-2.2-89.5,38.2-87.3,87.3c1.9,42.6,36.2,77.2,78.7,79.5
			c18,1,34.8-3.7,48.8-12.5c4.4-2.7,5.1-8.8,1.4-12.5c0,0-0.1-0.1-0.1-0.1c-2.7-2.7-6.8-3.1-10-1.1c-10.5,6.5-22.9,10.2-36.2,10.1
			c-37.5-0.4-67.7-31.8-66.6-69.3c1.1-37.7,33.2-67.7,71.7-65.3c33.1,2.1,60.1,28.5,62.8,61.6c1.1,13.5-1.8,26.2-7.6,37.2
			c-1.7,3.1-1.2,7,1.4,9.5c0,0,0.1,0.1,0.1,0.1c3.8,3.8,10.2,2.9,12.7-1.8C340.8,286.8,344.5,271.7,343.6,255.8z"/>
	</g>
</g>
<g>
	<g>
		<circle class="st0" cx="346.4" cy="163.5" r="21.6"/>
	</g>
</g>
</svg>
