<svg id="Capa_1" data-name="Capa 1" xmlns="http://www.w3.org/2000/svg" viewBox="0 0 512 512"><defs><style>.cls-1{fill:#fff;}</style></defs><title>in</title><path class="cls-1" d="M256,0C114.61,0,0,114.61,0,256S114.61,512,256,512,512,397.39,512,256,397.39,0,256,0Zm0,472C136.7,472,40,375.3,40,256S136.7,40,256,40s216,96.7,216,216S375.3,472,256,472Z"/><path class="cls-1" d="M128.09,383.89h48v-192h-48Zm192-192c-41.09.69-61.31,30.64-64,32v-32h-48v192h48v-112c0-4.11,10.13-37,48-32,20.35,1.33,31.32,28.23,32,32v112l47.82.22V251.19C382.22,232,372.62,192.58,320.09,191.89Zm-168-64a24,24,0,1,0,24,24A24,24,0,0,0,152.09,127.89Z"/></svg>