<svg id="Layer_1" data-name="Layer 1" xmlns="http://www.w3.org/2000/svg" viewBox="0 0 519 519"><defs><style>.cls-1{fill:#fff;stroke:#fff;stroke-miterlimit:10;stroke-width:7px;}</style></defs><title>instagram</title><path class="cls-1" d="M441.18,79.53a256,256,0,1,0-362,362,256,256,0,0,0,362-362Zm-181,420.85c-132.24,0-239.83-107.59-239.83-239.83S127.92,20.72,260.16,20.72,500,128.31,500,260.55,392.41,500.38,260.16,500.38Z" transform="translate(-0.66 -1.05)"/><path class="cls-1" d="M352,101.56H168.32a67.22,67.22,0,0,0-67.14,67.14V352.4a67.22,67.22,0,0,0,67.14,67.14H352a67.22,67.22,0,0,0,67.14-67.14V168.7A67.22,67.22,0,0,0,352,101.56Zm51,250.83a51,51,0,0,1-51,51H168.32a51,51,0,0,1-51-51V168.7a51,51,0,0,1,51-51H352a51,51,0,0,1,51,51V352.39Z" transform="translate(-0.66 -1.05)"/><path class="cls-1" d="M343.57,255.77a83.64,83.64,0,1,0-39.32,75.69A8,8,0,0,0,305.69,319l-.12-.11a8.05,8.05,0,0,0-10-1.08,67,67,0,0,1-36.16,10.11c-37.45-.4-67.67-31.85-66.62-69.29A67.37,67.37,0,1,1,319.69,292a8.06,8.06,0,0,0,1.36,9.5l.12.12a8,8,0,0,0,12.68-1.82A83,83,0,0,0,343.57,255.77Z" transform="translate(-0.66 -1.05)"/><circle class="cls-1" cx="345.73" cy="162.49" r="21.56"/></svg>