<svg id="Layer_1" data-name="Layer 1" xmlns="http://www.w3.org/2000/svg" viewBox="0 0 414 414"><defs><style>.cls-1,.cls-2{fill:none;}.cls-2{stroke:#fff;stroke-miterlimit:10;stroke-width:4px;}</style></defs><title>snapchathvid</title><path class="cls-1" d="M234,100.59c40.81,0,74.79,34,74.84,74.88,0,9.58.31,18.4.85,26.52a9.31,9.31,0,0,0,11.43,8.48l12.78-3a7,7,0,0,1,1.63-.19,7.13,7.13,0,0,1,7,5.5,9.4,9.4,0,0,1-6.07,10.91l-19.4,7.83a10.43,10.43,0,0,0-6.15,12.41c15.57,57.55,59,51.56,59,59.06,0,9.41-32.77,10.74-35.73,13.71s-.13,17.33-6.74,20.11a14.19,14.19,0,0,1-5.18.71c-5,0-12-1-19.46-1-6.44,0-13.17.73-19.08,3.47-15.7,7.25-30.83,20.79-49.58,20.79S200.29,347.27,184.59,340c-5.91-2.74-12.64-3.47-19.08-3.47-7.43,0-14.48,1-19.46,1a14.19,14.19,0,0,1-5.18-.71c-6.61-2.78-3.78-17.15-6.74-20.11S98.4,312.41,98.4,303c0-7.5,43.47-1.51,59-59.06a10.43,10.43,0,0,0-6.15-12.41l-19.4-7.83a9.41,9.41,0,0,1-6.07-10.91,7.13,7.13,0,0,1,7-5.5,7,7,0,0,1,1.63.19l12.78,3A9.31,9.31,0,0,0,158.62,202c.54-8.12.84-16.94.85-26.52.05-40.9,33.76-74.87,74.56-74.88m0-16.23h0a88.83,88.83,0,0,0-35.26,7.27,92.35,92.35,0,0,0-48.3,48.53,89.81,89.81,0,0,0-7.23,35.29c0,6-.13,11.78-.37,17.34l-4.76-1.11a23.25,23.25,0,0,0-5.33-.62A23.54,23.54,0,0,0,118.41,196,23.25,23.25,0,0,0,110,209.28a25.65,25.65,0,0,0,16.11,29.58l14.24,5.74c-9.43,29-26.82,34.49-38.53,38.23a58.12,58.12,0,0,0-8.34,3.11C83.27,291,82.17,299.55,82.17,303c0,6.6,3.12,12.62,8.8,17a37.22,37.22,0,0,0,10.69,5.44,133.54,133.54,0,0,0,18.48,4.4,42.13,42.13,0,0,0,1.34,6.57c2.79,9.35,8.66,13.54,13.1,15.41a29.6,29.6,0,0,0,11.47,2c2.84,0,5.85-.22,9-.46,3.41-.25,6.94-.51,10.43-.51,5.39,0,9.41.64,12.28,2,3.93,1.82,8.11,4.27,12.53,6.86,12.31,7.23,26.25,15.42,43.85,15.42s31.54-8.19,43.85-15.42c4.42-2.59,8.59-5,12.53-6.86,2.87-1.33,6.89-2,12.28-2,3.49,0,7,.26,10.43.51,3.18.24,6.19.46,9,.46a29.6,29.6,0,0,0,11.47-2c4.44-1.87,10.31-6.06,13.1-15.41a42.13,42.13,0,0,0,1.34-6.57,133.54,133.54,0,0,0,18.48-4.4A37.22,37.22,0,0,0,377.37,320c5.68-4.34,8.8-10.36,8.8-17,0-3.45-1.1-12-11.28-17.06a58.26,58.26,0,0,0-8.35-3.11c-11.7-3.74-29.09-9.28-38.52-38.23l14.24-5.74a25.64,25.64,0,0,0,16.1-29.58A23.18,23.18,0,0,0,349.93,196a23.38,23.38,0,0,0-19.71-4.31l-4.75,1.11c-.24-5.56-.36-11.36-.37-17.34a89.57,89.57,0,0,0-7.29-35.33,92.7,92.7,0,0,0-48.48-48.49A89,89,0,0,0,234,84.36Z" transform="translate(-27.17 -20.64)"/><circle class="cls-2" cx="207" cy="207" r="205"/></svg>